<svg width="42" height="32" viewBox="0 0 42 32" fill="none" xmlns="http://www.w3.org/2000/svg"  stroke-width="5">
<path d="M33.958 12.982C33.528 6.372 28.931 0 20.5 0C19.471 0 18.456 0.1 17.482 0.297C17.3519 0.323389 17.2376 0.400375 17.1643 0.511021C17.091 0.621668 17.0646 0.756911 17.091 0.887C17.1174 1.01709 17.1944 1.13137 17.305 1.20469C17.4157 1.27802 17.5509 1.30439 17.681 1.278C18.609 1.09131 19.5534 0.998182 20.5 1C29.088 1 33 7.739 33 14V15.5C33 15.6326 33.0527 15.7598 33.1464 15.8536C33.2402 15.9473 33.3674 16 33.5 16C33.6326 16 33.7598 15.9473 33.8536 15.8536C33.9473 15.7598 34 15.6326 34 15.5V14L33.999 13.984C37.062 14.248 41 16.916 41 22.5C41 27.267 37.486 31 33 31H9C5.024 31 1 28.08 1 22.5C1 18.406 3.504 14 9 14H10.5C10.6326 14 10.7598 13.9473 10.8536 13.8536C10.9473 13.7598 11 13.6326 11 13.5C11 13.3674 10.9473 13.2402 10.8536 13.1464C10.7598 13.0527 10.6326 13 10.5 13H9V11C9 7.273 11.299 4.958 15 4.958C18.364 4.958 21 7.612 21 11V23.993L16.84 20.133C16.7919 20.0883 16.7355 20.0536 16.6741 20.0307C16.6126 20.0079 16.5472 19.9974 16.4816 19.9998C16.3492 20.0047 16.2242 20.0619 16.134 20.159C16.0438 20.2561 15.9959 20.385 16.0008 20.5174C16.0057 20.6498 16.0629 20.7748 16.16 20.865L20.676 25.054C20.975 25.352 21.239 25.499 21.503 25.499C21.764 25.499 22.023 25.354 22.311 25.066L26.84 20.864C26.8882 20.8195 26.9272 20.7658 26.9546 20.7062C26.9821 20.6465 26.9974 20.582 26.9999 20.5164C27.0023 20.4508 26.9917 20.3853 26.9687 20.3238C26.9457 20.2623 26.9108 20.206 26.866 20.158C26.8215 20.1096 26.7679 20.0706 26.7083 20.0431C26.6486 20.0155 26.5841 20.0001 26.5184 19.9977C26.4528 19.9953 26.3873 20.0059 26.3258 20.029C26.2642 20.052 26.2079 20.087 26.16 20.132L22 23.993V11C22 7.051 18.925 3.958 15 3.958C10.748 3.958 8 6.722 8 11V13.051C2.745 13.559 0 18.054 0 22.5C0 27.105 3.154 32 9 32H33C38.047 32 42 27.827 42 22.5C42 16.196 37.443 13.222 33.958 12.982Z" fill="#333333"/>
</svg>
